# xmcd CD database file
#
# Track frame offsets:
#	187
#	20825
#	42205
#	62835
#
# Disc length: 1121 seconds
#
# Revision: 0
# Processed by: cddbd v1.5PL3 Copyright (c) Steve Scherf et al.
# Submitted via: CDex 1.40Release
#
DISCID=31045f04
DTITLE=麻生かほ里 - ナースエンジェルりりか - 笑顔を忘れない
DYEAR=1996
DGENRE=Anime
TTITLE0=笑顔を忘れない
TTITLE1=もう一度会えたなら
TTITLE2=笑顔を忘れない (OFF VOCAL VERSION)
TTITLE3=もう一度会えたなら (OFF VOCAL VERSION)
EXTD=YEAR: 1996
EXTT0=
EXTT1=
EXTT2=
EXTT3=
PLAYORDER=
